<svg id="Layer_1" data-name="Layer 1" xmlns="http://www.w3.org/2000/svg" viewBox="0 0 769 434.38"><title>DataDelta</title><g style="opacity:0.27"><path d="M39.54,125.59L31,134.16a1.68,1.68,0,0,1-2.38,0l-9.52-9.52a1.68,1.68,0,0,0-2.38,0h0a1.68,1.68,0,0,0,0,2.38l9.52,9.52a1.68,1.68,0,0,1,0,2.38l-9.52,9.52a1.68,1.68,0,0,0,0,2.38h0a1.68,1.68,0,0,0,2.38,0l9.52-9.52a1.68,1.68,0,0,1,2.38,0l8.56,8.56a1.68,1.68,0,0,0,2.38,0h0a1.68,1.68,0,0,0,0-2.38l-8.56-8.56a1.68,1.68,0,0,1,0-2.38L41.92,128a1.68,1.68,0,0,0,0-2.38h0A1.68,1.68,0,0,0,39.54,125.59Z" transform="translate(-11 -23.48)" style="fill:#e9f0f6;opacity:0.1"/><path d="M39.54,213.35L31,221.91a1.68,1.68,0,0,1-2.38,0l-9.52-9.52a1.68,1.68,0,0,0-2.38,0h0a1.68,1.68,0,0,0,0,2.38l9.52,9.52a1.68,1.68,0,0,1,0,2.38l-9.52,9.52a1.68,1.68,0,0,0,0,2.38h0a1.68,1.68,0,0,0,2.38,0L28.59,229A1.68,1.68,0,0,1,31,229l8.56,8.56a1.68,1.68,0,0,0,2.38,0h0a1.68,1.68,0,0,0,0-2.38l-8.56-8.56a1.68,1.68,0,0,1,0-2.38l8.56-8.56a1.68,1.68,0,0,0,0-2.38h0A1.68,1.68,0,0,0,39.54,213.35Z" transform="translate(-11 -23.48)" style="fill:#e9f0f6;opacity:0.1"/><path d="M39.54,423.5L31,432.06a1.68,1.68,0,0,1-2.38,0l-9.52-9.52a1.68,1.68,0,0,0-2.38,0h0a1.68,1.68,0,0,0,0,2.38l9.52,9.52a1.68,1.68,0,0,1,0,2.38l-9.52,9.52a1.68,1.68,0,0,0,0,2.38h0a1.68,1.68,0,0,0,2.38,0l9.52-9.52a1.68,1.68,0,0,1,2.38,0l8.56,8.56a1.68,1.68,0,0,0,2.38,0h0a1.68,1.68,0,0,0,0-2.38l-8.56-8.56a1.68,1.68,0,0,1,0-2.38l8.56-8.56a1.68,1.68,0,0,0,0-2.38h0A1.68,1.68,0,0,0,39.54,423.5Z" transform="translate(-11 -23.48)" style="fill:#e9f0f6;opacity:0.1"/><path d="M147.71,30.91l-8.56,8.56a1.68,1.68,0,0,1-2.38,0L127.25,30a1.68,1.68,0,0,0-2.38,0h0a1.68,1.68,0,0,0,0,2.38l9.52,9.52a1.68,1.68,0,0,1,0,2.38l-9.52,9.52a1.68,1.68,0,0,0,0,2.38h0a1.68,1.68,0,0,0,2.38,0l9.52-9.52a1.68,1.68,0,0,1,2.38,0l8.56,8.56a1.68,1.68,0,0,0,2.38,0h0a1.68,1.68,0,0,0,0-2.38l-8.56-8.56a1.68,1.68,0,0,1,0-2.38l8.56-8.56a1.68,1.68,0,0,0,0-2.38h0A1.68,1.68,0,0,0,147.71,30.91Z" transform="translate(-11 -23.48)" style="fill:#e9f0f6;opacity:0.1"/><path d="M147.71,127.33l-8.56,8.56a1.68,1.68,0,0,1-2.38,0l-9.52-9.52a1.68,1.68,0,0,0-2.38,0h0a1.68,1.68,0,0,0,0,2.38l9.52,9.52a1.68,1.68,0,0,1,0,2.38l-9.52,9.52a1.68,1.68,0,0,0,0,2.38h0a1.68,1.68,0,0,0,2.38,0l9.52-9.52a1.68,1.68,0,0,1,2.38,0l8.56,8.56a1.68,1.68,0,0,0,2.38,0h0a1.68,1.68,0,0,0,0-2.38l-8.56-8.56a1.68,1.68,0,0,1,0-2.38l8.56-8.56a1.68,1.68,0,0,0,0-2.38h0A1.68,1.68,0,0,0,147.71,127.33Z" transform="translate(-11 -23.48)" style="fill:#e9f0f6;opacity:0.1"/><path d="M147.71,320.16l-8.56,8.56a1.68,1.68,0,0,1-2.38,0l-9.52-9.52a1.68,1.68,0,0,0-2.38,0h0a1.68,1.68,0,0,0,0,2.38l9.52,9.52a1.68,1.68,0,0,1,0,2.38L124.87,343a1.68,1.68,0,0,0,0,2.38h0a1.68,1.68,0,0,0,2.38,0l9.52-9.52a1.68,1.68,0,0,1,2.38,0l8.56,8.56a1.68,1.68,0,0,0,2.38,0h0a1.68,1.68,0,0,0,0-2.38l-8.56-8.56a1.68,1.68,0,0,1,0-2.38l8.56-8.56a1.68,1.68,0,0,0,0-2.38h0A1.68,1.68,0,0,0,147.71,320.16Z" transform="translate(-11 -23.48)" style="fill:#e9f0f6;opacity:0.1"/><path d="M147.71,425.23l-8.56,8.56a1.68,1.68,0,0,1-2.38,0l-9.52-9.52a1.68,1.68,0,0,0-2.38,0h0a1.68,1.68,0,0,0,0,2.38l9.52,9.52a1.68,1.68,0,0,1,0,2.38l-9.52,9.52a1.68,1.68,0,0,0,0,2.38h0a1.68,1.68,0,0,0,2.38,0l9.52-9.52a1.68,1.68,0,0,1,2.38,0l8.56,8.56a1.68,1.68,0,0,0,2.38,0h0a1.68,1.68,0,0,0,0-2.38l-8.56-8.56a1.68,1.68,0,0,1,0-2.38l8.56-8.56a1.68,1.68,0,0,0,0-2.38h0A1.68,1.68,0,0,0,147.71,425.23Z" transform="translate(-11 -23.48)" style="fill:#e9f0f6;opacity:0.1"/><path d="M253.81,32.65l-8.56,8.56a1.68,1.68,0,0,1-2.38,0l-9.52-9.52a1.68,1.68,0,0,0-2.38,0h0a1.68,1.68,0,0,0,0,2.38l9.52,9.52a1.68,1.68,0,0,1,0,2.38L231,55.49a1.68,1.68,0,0,0,0,2.38h0a1.68,1.68,0,0,0,2.38,0l9.52-9.52a1.68,1.68,0,0,1,2.38,0l8.56,8.56a1.68,1.68,0,0,0,2.38,0h0a1.68,1.68,0,0,0,0-2.38L247.63,46a1.68,1.68,0,0,1,0-2.38L256.19,35a1.68,1.68,0,0,0,0-2.38h0A1.68,1.68,0,0,0,253.81,32.65Z" transform="translate(-11 -23.48)" style="fill:#e9f0f6;opacity:0.1"/><path d="M253.81,216.81l-8.56,8.56a1.68,1.68,0,0,1-2.38,0l-9.52-9.52a1.68,1.68,0,0,0-2.38,0h0a1.68,1.68,0,0,0,0,2.38l9.52,9.52a1.68,1.68,0,0,1,0,2.38L231,239.65a1.68,1.68,0,0,0,0,2.38h0a1.68,1.68,0,0,0,2.38,0l9.52-9.52a1.68,1.68,0,0,1,2.38,0l8.56,8.56a1.68,1.68,0,0,0,2.38,0h0a1.68,1.68,0,0,0,0-2.38l-8.56-8.56a1.68,1.68,0,0,1,0-2.38l8.56-8.56a1.68,1.68,0,0,0,0-2.38h0A1.68,1.68,0,0,0,253.81,216.81Z" transform="translate(-11 -23.48)" style="fill:#e9f0f6;opacity:0.1"/><path d="M253.81,321.89l-8.56,8.56a1.68,1.68,0,0,1-2.38,0l-9.52-9.52a1.68,1.68,0,0,0-2.38,0h0a1.68,1.68,0,0,0,0,2.38l9.52,9.52a1.68,1.68,0,0,1,0,2.38L231,344.73a1.68,1.68,0,0,0,0,2.38h0a1.68,1.68,0,0,0,2.38,0l9.52-9.52a1.68,1.68,0,0,1,2.38,0l8.56,8.56a1.68,1.68,0,0,0,2.38,0h0a1.68,1.68,0,0,0,0-2.38l-8.56-8.56a1.68,1.68,0,0,1,0-2.38l8.56-8.56a1.68,1.68,0,0,0,0-2.38h0A1.68,1.68,0,0,0,253.81,321.89Z" transform="translate(-11 -23.48)" style="fill:#e9f0f6;opacity:0.1"/></g><g style="opacity:0.2"><circle cx="518.03" cy="307.61" r="14.11" style="fill:#fff"/><circle cx="384.24" cy="21.69" r="14.11" style="fill:#fff"/><rect x="626" y="329.52" width="7" height="27" rx="3.32" ry="3.32" style="fill:#fff"/><rect x="689" y="264.52" width="7" height="27" rx="3.32" ry="3.32" style="fill:#fff"/><path d="M775.79,312a3.46,3.46,0,0,0,0-4.9l-14.69-14.69a3.46,3.46,0,0,0-4.9,0h0a3.46,3.46,0,0,0,0,4.9L770.9,312a3.46,3.46,0,0,0,4.9,0h0Z" transform="translate(-11 -23.48)" style="fill:#fff"/><path d="M27.82,25.17V37.28A1.68,1.68,0,0,1,26.14,39H12.68A1.68,1.68,0,0,0,11,40.64h0a1.68,1.68,0,0,0,1.68,1.68H26.14A1.68,1.68,0,0,1,27.82,44V57.46a1.68,1.68,0,0,0,1.68,1.68h0a1.68,1.68,0,0,0,1.68-1.68V44a1.68,1.68,0,0,1,1.68-1.68H45a1.68,1.68,0,0,0,1.68-1.68h0A1.68,1.68,0,0,0,45,39H32.87a1.68,1.68,0,0,1-1.68-1.68V25.17a1.68,1.68,0,0,0-1.68-1.68h0A1.68,1.68,0,0,0,27.82,25.17Z" transform="translate(-11 -23.48)" style="fill:#fff"/><path d="M27.82,314.41v12.11a1.68,1.68,0,0,1-1.68,1.68H12.68A1.68,1.68,0,0,0,11,329.88h0a1.68,1.68,0,0,0,1.68,1.68H26.14a1.68,1.68,0,0,1,1.68,1.68V346.7a1.68,1.68,0,0,0,1.68,1.68h0a1.68,1.68,0,0,0,1.68-1.68V333.25a1.68,1.68,0,0,1,1.68-1.68H45a1.68,1.68,0,0,0,1.68-1.68h0A1.68,1.68,0,0,0,45,328.2H32.87a1.68,1.68,0,0,1-1.68-1.68V314.41a1.68,1.68,0,0,0-1.68-1.68h0A1.68,1.68,0,0,0,27.82,314.41Z" transform="translate(-11 -23.48)" style="fill:#fff"/><path d="M136,211.07v12.11a1.68,1.68,0,0,1-1.68,1.68H120.85a1.68,1.68,0,0,0-1.68,1.68h0a1.68,1.68,0,0,0,1.68,1.68h13.46a1.68,1.68,0,0,1,1.68,1.68v13.46a1.68,1.68,0,0,0,1.68,1.68h0a1.68,1.68,0,0,0,1.68-1.68V229.91a1.68,1.68,0,0,1,1.68-1.68h12.11a1.68,1.68,0,0,0,1.68-1.68h0a1.68,1.68,0,0,0-1.68-1.68H141a1.68,1.68,0,0,1-1.68-1.68V211.07a1.68,1.68,0,0,0-1.68-1.68h0A1.68,1.68,0,0,0,136,211.07Z" transform="translate(-11 -23.48)" style="fill:#fff"/><path d="M242.1,125v12.11a1.68,1.68,0,0,1-1.68,1.68H227a1.68,1.68,0,0,0-1.68,1.68h0A1.68,1.68,0,0,0,227,142.2h13.46a1.68,1.68,0,0,1,1.68,1.68v13.46a1.68,1.68,0,0,0,1.68,1.68h0a1.68,1.68,0,0,0,1.68-1.68V143.89a1.68,1.68,0,0,1,1.68-1.68h12.11a1.68,1.68,0,0,0,1.68-1.68h0a1.68,1.68,0,0,0-1.68-1.68H247.14a1.68,1.68,0,0,1-1.68-1.68V125a1.68,1.68,0,0,0-1.68-1.68h0A1.68,1.68,0,0,0,242.1,125Z" transform="translate(-11 -23.48)" style="fill:#fff"/><path d="M242.1,422.95v12.11a1.68,1.68,0,0,1-1.68,1.68H227a1.68,1.68,0,0,0-1.68,1.68h0A1.68,1.68,0,0,0,227,440.1h13.46a1.68,1.68,0,0,1,1.68,1.68v13.46a1.68,1.68,0,0,0,1.68,1.68h0a1.68,1.68,0,0,0,1.68-1.68V441.79a1.68,1.68,0,0,1,1.68-1.68h12.11a1.68,1.68,0,0,0,1.68-1.68h0a1.68,1.68,0,0,0-1.68-1.68H247.14a1.68,1.68,0,0,1-1.68-1.68V422.95a1.68,1.68,0,0,0-1.68-1.68h0A1.68,1.68,0,0,0,242.1,422.95Z" transform="translate(-11 -23.48)" style="fill:#fff"/><path d="M710,31.84c0-2.57-1.12-4.84-3.94-4.84h-1.17A4.84,4.84,0,0,0,700,31.84v27c0,2.57,2.06,4.13,4.88,4.13h1.17c2.82,0,3.94-1.56,3.94-4.13v-27Z" transform="translate(-11 -23.48)" style="fill:#fff"/><path d="M682,31.84c0-2.57-3.51-4.84-6.33-4.84h-1.17c-2.82,0-4.49,2.26-4.49,4.84v27c0,2.57,1.67,4.13,4.49,4.13h1.17c2.82,0,6.33-1.56,6.33-4.13v-27Z" transform="translate(-11 -23.48)" style="fill:#fff"/></g><g style="opacity:0.04"><circle cx="518.03" cy="125.11" r="14.11" style="fill:#fff"/><circle cx="518.03" cy="207.78" r="14.11" style="fill:#fff"/><circle cx="451.33" cy="125.11" r="14.11" style="fill:#fff"/><circle cx="384.24" cy="207.78" r="14.11" style="fill:#fff"/><circle cx="317.82" cy="207.78" r="14.11" style="fill:#fff"/><rect x="567" y="415.52" width="27" height="7" rx="3.32" ry="3.32" style="fill:#fff"/><rect x="56" y="258.52" width="27" height="7" rx="3.32" ry="3.32" style="fill:#fff"/><rect x="171" y="259.52" width="27" height="7" rx="3.32" ry="3.32" style="fill:#fff"/><rect x="171" y="366.52" width="27" height="7" rx="3.32" ry="3.32" style="fill:#fff"/><rect x="689" y="403.52" width="7" height="27" rx="3.32" ry="3.32" style="fill:#fff"/><rect x="689" y="181.52" width="7" height="27" rx="3.32" ry="3.32" style="fill:#fff"/><rect x="626" y="193.52" width="27" height="7" rx="3.32" ry="3.32" style="fill:#fff"/><path d="M658.25,314.49a3.46,3.46,0,0,0,0-4.9l-14.69-14.69a3.46,3.46,0,0,0-4.9,0h0a3.46,3.46,0,0,0,0,4.9l14.69,14.69a3.46,3.46,0,0,0,4.9,0h0Z" transform="translate(-11 -23.48)" style="fill:#fff"/><path d="M538.29,56.62a3.46,3.46,0,0,0,0-4.9L523.61,37a3.46,3.46,0,0,0-4.9,0h0a3.46,3.46,0,0,0,0,4.9L533.4,56.62a3.46,3.46,0,0,0,4.9,0h0Z" transform="translate(-11 -23.48)" style="fill:#fff"/><rect x="742" y="191.52" width="27" height="7" rx="3.32" ry="3.32" style="fill:#fff"/><path d="M732,31.84A5,5,0,0,0,726.95,27h-1.17A4.75,4.75,0,0,0,721,31.84v27c0,2.57,2,4.13,4.77,4.13h1.17c2.82,0,5.05-1.56,5.05-4.13v-27Z" transform="translate(-11 -23.48)" style="fill:#fff"/><path d="M745,353.75c0-2.57-2.47-3.75-5.29-3.75h-1.17c-2.82,0-6.53,1.18-6.53,3.75v27c0,2.57,3.71,5.22,6.53,5.22h1.17a5.55,5.55,0,0,0,5.29-5.22v-27Z" transform="translate(-11 -23.48)" style="fill:#fff"/><path d="M724,353.75c0-2.57-2.24-3.75-5.06-3.75h-1.17c-2.82,0-5.76,1.18-5.76,3.75v27c0,2.57,2.94,5.22,5.76,5.22h1.17a5.33,5.33,0,0,0,5.06-5.22v-27Z" transform="translate(-11 -23.48)" style="fill:#fff"/><rect x="731.53" y="3.7" width="37.41" height="36.35" rx="10.62" ry="10.62" style="fill:#fff"/><rect x="665.35" y="348.41" width="37.41" height="36.35" rx="10.62" ry="10.62" transform="translate(1357.1 709.68) rotate(180)" style="fill:#fff"/></g><g style="opacity:0.05"><circle cx="450.32" cy="307.61" r="14.11" style="fill:#fff"/><circle cx="317.82" cy="21.69" r="14.11" style="fill:#fff"/><circle cx="315.46" cy="307.61" r="14.11" style="fill:#fff"/><rect x="56" y="365.52" width="27" height="7" rx="3.32" ry="3.32" style="fill:#fff"/><rect x="56" y="151.52" width="27" height="7" rx="3.32" ry="3.32" style="fill:#fff"/><rect x="56" y="60.52" width="27" height="7" rx="3.32" ry="3.32" style="fill:#fff"/><rect x="171" y="152.52" width="27" height="7" rx="3.32" ry="3.32" style="fill:#fff"/><rect x="171" y="62.52" width="27" height="7" rx="3.32" ry="3.32" style="fill:#fff"/><path d="M774.57,122.36a3.46,3.46,0,0,0,0-4.9h0a3.46,3.46,0,0,0-4.9,0L755,132.15a3.46,3.46,0,0,0,0,4.9h0a3.46,3.46,0,0,0,4.9,0Z" transform="translate(-11 -23.48)" style="fill:#fff"/><path d="M611.55,190a5.81,5.81,0,0,0,5.45-5.35v-1.17a5.93,5.93,0,0,0-5.45-5.48h-27c-2.57,0-3.52,2.65-3.52,5.48v1.17c0,2.82.94,5.35,3.52,5.35h27Z" transform="translate(-11 -23.48)" style="fill:#fff"/><path d="M611.55,138c2.57,0,5.45-1.8,5.45-4.63V132.2c0-2.82-2.88-6.2-5.45-6.2h-27c-2.57,0-3.52,3.38-3.52,6.2v1.17c0,2.82.94,4.63,3.52,4.63h27Z" transform="translate(-11 -23.48)" style="fill:#fff"/><rect x="579.33" y="200.77" width="37.41" height="36.35" rx="10.62" ry="10.62" transform="translate(805.97 -402.57) rotate(90)" style="fill:#fff"/><circle cx="382.51" cy="412.83" r="14.11" style="fill:#fff"/><circle cx="316.09" cy="412.83" r="14.11" style="fill:#fff"/></g><g style="opacity:0.05"><rect x="567" y="339.52" width="27" height="7" rx="3.32" ry="3.32" style="fill:#fff"/><rect x="734" y="414.52" width="27" height="7" rx="3.32" ry="3.32" style="fill:#fff"/><rect x="573" y="20.52" width="27" height="7" rx="3.32" ry="3.32" style="fill:#fff"/><path d="M658.25,123.58a3.46,3.46,0,0,0,0-4.9h0a3.46,3.46,0,0,0-4.9,0l-14.69,14.69a3.46,3.46,0,0,0,0,4.9h0a3.46,3.46,0,0,0,4.9,0Z" transform="translate(-11 -23.48)" style="fill:#fff"/><path d="M401,138.32c0-2.12-2.54-4.32-5.11-4.32h-1.07c-2.57,0-4.82,2.2-4.82,4.32v22.29c0,2.12,2.25,3.39,4.82,3.39h1.07c2.57,0,5.11-1.27,5.11-3.39V138.32Z" transform="translate(-11 -23.48)" style="fill:#fff"/><path d="M772,353.75c0-2.57-1.78-3.75-4.6-3.75h-1.17c-2.82,0-6.22,1.18-6.22,3.75v27c0,2.57,3.4,5.22,6.22,5.22h1.17c2.82,0,4.6-2.65,4.6-5.22v-27Z" transform="translate(-11 -23.48)" style="fill:#fff"/><path d="M611.55,168c2.57,0,5.45-1.42,5.45-4.24v-1.17a6,6,0,0,0-5.45-5.59h-27c-2.57,0-3.52,2.76-3.52,5.59v1.17c0,2.82.94,4.24,3.52,4.24h27Z" transform="translate(-11 -23.48)" style="fill:#fff"/><path d="M536.56,447.76a3.46,3.46,0,0,0,0-4.9l-14.69-14.69a3.46,3.46,0,0,0-4.9,0h0a3.46,3.46,0,0,0,0,4.9l14.69,14.69a3.46,3.46,0,0,0,4.9,0h0Z" transform="translate(-11 -23.48)" style="fill:#fff"/></g><g style="opacity:0.18"><path d="M327.48,164.43a15.84,15.84,0,1,1,15.84-15.84A15.86,15.86,0,0,1,327.48,164.43Zm0-28.22a12.38,12.38,0,1,0,12.38,12.38A12.39,12.39,0,0,0,327.48,136.21Z" transform="translate(-11 -23.48)" style="fill:#fff"/><path d="M649.92,457.86a16.77,16.77,0,1,1,16.77-16.77A16.79,16.79,0,0,1,649.92,457.86Zm0-28.24a11.46,11.46,0,1,0,11.46,11.46A11.48,11.48,0,0,0,649.92,429.63Z" transform="translate(-11 -23.48)" style="fill:#fff"/><path d="M463.54,248a16.77,16.77,0,1,1,16.77-16.77A16.79,16.79,0,0,1,463.54,248Zm0-28.24A11.47,11.47,0,1,0,475,231.26,11.48,11.48,0,0,0,463.54,219.79Z" transform="translate(-11 -23.48)" style="fill:#fff"/><path d="M594.66,318.1a15.85,15.85,0,1,1,15.85-15.85A15.87,15.87,0,0,1,594.66,318.1Zm0-28.24A12.39,12.39,0,1,0,607,302.26,12.4,12.4,0,0,0,594.66,289.87Z" transform="translate(-11 -23.48)" style="fill:#fff"/><path d="M706.88,148.66a16.77,16.77,0,1,1,16.77-16.77A16.79,16.79,0,0,1,706.88,148.66Zm0-28.24a11.47,11.47,0,1,0,11.46,11.47A11.48,11.48,0,0,0,706.88,120.42Z" transform="translate(-11 -23.48)" style="fill:#fff"/><path d="M469.42,61.22H457.67a9.91,9.91,0,0,1-9.9-9.9V39a9.91,9.91,0,0,1,9.9-9.9h11.75a9.91,9.91,0,0,1,9.9,9.9V51.32A9.91,9.91,0,0,1,469.42,61.22ZM457.67,32.59A6.45,6.45,0,0,0,451.23,39V51.32a6.45,6.45,0,0,0,6.44,6.44h11.75a6.45,6.45,0,0,0,6.44-6.44V39a6.45,6.45,0,0,0-6.44-6.44H457.67Z" transform="translate(-11 -23.48)" style="fill:#fff"/><path d="M467.69,452.36H455.94a9.91,9.91,0,0,1-9.9-9.9V430.17a9.91,9.91,0,0,1,9.9-9.9h11.76a9.91,9.91,0,0,1,9.9,9.9v12.29A9.91,9.91,0,0,1,467.69,452.36Zm-11.76-28.63a6.45,6.45,0,0,0-6.44,6.44v12.29a6.45,6.45,0,0,0,6.44,6.44h11.76a6.45,6.45,0,0,0,6.44-6.44V430.17a6.45,6.45,0,0,0-6.44-6.44H455.94Z" transform="translate(-11 -23.48)" style="fill:#fff"/><path d="M401.12,347.14H389.36a9.91,9.91,0,0,1-9.9-9.9V325a9.91,9.91,0,0,1,9.9-9.9h11.76A9.91,9.91,0,0,1,411,325v12.29A9.91,9.91,0,0,1,401.12,347.14Zm-11.76-28.63a6.45,6.45,0,0,0-6.44,6.44v12.29a6.45,6.45,0,0,0,6.44,6.44h11.76a6.45,6.45,0,0,0,6.44-6.44V325a6.45,6.45,0,0,0-6.44-6.44H389.36Z" transform="translate(-11 -23.48)" style="fill:#fff"/></g></svg>